<?xml version="1.0" standalone="no"?><!DOCTYPE svg PUBLIC "-//W3C//DTD SVG 1.1//EN" "http://www.w3.org/Graphics/SVG/1.1/DTD/svg11.dtd"><svg t="1734447720707" class="icon" viewBox="0 0 1024 1024" version="1.1" xmlns="http://www.w3.org/2000/svg" p-id="9254" xmlns:xlink="http://www.w3.org/1999/xlink" width="128" height="128"><path d="M444.565604 311.896872h94.244429l48.503647-224.815429h-94.346757z" fill="#919AFF" p-id="9255"></path><path d="M905.452583 235.969222H126.324373c-40.010393 0-72.550814 32.438093-72.550814 72.550814v576.211052c0 40.010393 32.438093 72.550814 72.550814 72.550815h779.12821c40.010393 0 72.550814-32.438093 72.550815-72.550815V308.520036c0-40.112721-32.540422-72.550814-72.550815-72.550814z" fill="#DEE3FF" p-id="9256" data-spm-anchor-id="a313x.search_index.0.i1.46cf3a814CshRE" class="selected"></path><path d="M905.452583 929.346258H126.324373c-40.010393 0-72.550814-32.438093-72.550814-72.550815v27.935645c0 40.010393 32.438093 72.550814 72.550814 72.550815h779.12821c40.010393 0 72.550814-32.438093 72.550815-72.550815v-27.935645c0 40.112721-32.540422 72.550814-72.550815 72.550815z" fill="#919AFF" p-id="9257"></path><path d="M882.121715 513.279105H571.04347c-5.321075 0-9.618867-4.297792-9.618867-9.618867s4.297792-9.618867 9.618867-9.618867h311.078245c5.321075 0 9.618867 4.297792 9.618867 9.618867s-4.297792 9.618867-9.618867 9.618867zM882.121715 591.662636H571.04347c-5.321075 0-9.618867-4.297792-9.618867-9.618867s4.297792-9.618867 9.618867-9.618866h311.078245c5.321075 0 9.618867 4.297792 9.618867 9.618866 0.102328 5.321075-4.297792 9.618867-9.618867 9.618867zM882.121715 669.943839H571.04347c-5.321075 0-9.618867-4.297792-9.618867-9.618866s4.297792-9.618867 9.618867-9.618867h311.078245c5.321075 0 9.618867 4.297792 9.618867 9.618867 0.102328 5.321075-4.297792 9.618867-9.618867 9.618866zM404.759868 597.08604c-18.521435-18.521435-40.82902-31.926451-65.183172-39.498751-5.218747-1.637254-5.62806-8.697911-0.818627-11.256121 36.838213-18.930748 60.783052-59.452783 55.154992-104.784251-5.832717-46.559408-43.694214-83.909264-90.253623-89.12801-62.010992-6.958329-114.812431 41.647647-114.812431 102.32837 0 39.908064 22.819227 74.495053 56.075947 91.583891 4.911762 2.455881 4.40012 9.618867-0.818627 11.153793-24.354152 7.572299-46.661737 20.977316-65.183172 39.49875-30.084541 30.186869-46.764065 70.197262-46.764065 112.868193v42.875587c0 6.753672 5.423404 12.177076 12.177076 12.177076h294.808034c6.753672 0 12.177076-5.423404 12.177077-12.177076v-42.875587c0.102328-42.568602-16.474868-82.578995-46.559409-112.765864z" fill="#B3BCFF" p-id="9258" data-spm-anchor-id="a313x.search_index.0.i2.46cf3a814CshRE" class="selected"></path><path d="M416.834616 610.593385c-20.465674-25.479764-47.173379-43.489557-76.950935-52.903768-5.321075-1.637254-6.037374-8.80024-1.125612-11.358449 39.089437-20.056361 63.648246-64.364545 53.824723-112.97052-6.037374-29.675227-25.684421-55.461977-52.392125-69.480964-20.158689-10.539822-39.601079-13.20036-57.917858-11.563106 0.920955 0.102328 1.841911 0.102328 2.865194 0.204657 46.559408 5.218747 91.890876 42.568602 97.723594 89.128011 5.62806 45.331468-17.907465 83.806935-61.806336 102.226041-8.18627 3.479165-7.469971 15.246927 1.023284 17.907465 23.944839 7.572299 46.866394 17.60048 65.694814 35.303288 31.312481 29.470571 51.675827 70.197262 51.675827 112.868192v55.052663h-0.102329c6.753672 0 12.177076-5.423404 12.177076-12.177076v-39.089437c-0.102328-37.247527-11.358449-74.188068-34.689317-103.146997z" fill="#919AFF" p-id="9259"></path><path d="M585.983412 311.896872h-92.197862c-0.61397 0-1.023284-0.409313-1.023284-1.023284V87.081443h94.244429v223.792145c0 0.61397-0.511642 1.023284-1.023283 1.023284z" fill="#B3BCFF" p-id="9260"></path></svg>